<mxfile host="app.diagrams.net" modified="2022-04-15T04:30:26.639Z" agent="5.0 (Macintosh; Intel Mac OS X 10_15_7) AppleWebKit/537.36 (KHTML, like Gecko) Chrome/100.0.4896.88 Safari/537.36" etag="dpowfur6VzjdRVAK6sVS" version="17.4.1" type="github">
  <diagram id="0dCZxyW4x5zEOJx5_g3J" name="Page-1">
    <mxGraphModel dx="322" dy="532" grid="1" gridSize="10" guides="1" tooltips="1" connect="1" arrows="1" fold="1" page="1" pageScale="1" pageWidth="827" pageHeight="1169" math="0" shadow="0">
      <root>
        <mxCell id="0" />
        <mxCell id="1" parent="0" />
        <mxCell id="oNxq9JDDvM6uJv1V1Ub6-12" style="edgeStyle=orthogonalEdgeStyle;rounded=0;orthogonalLoop=1;jettySize=auto;html=1;" edge="1" parent="1" source="oNxq9JDDvM6uJv1V1Ub6-1" target="oNxq9JDDvM6uJv1V1Ub6-10">
          <mxGeometry relative="1" as="geometry" />
        </mxCell>
        <mxCell id="oNxq9JDDvM6uJv1V1Ub6-1" value="客户端1" style="rounded=0;whiteSpace=wrap;html=1;fillColor=#E1D5E7;" vertex="1" parent="1">
          <mxGeometry x="1150" y="90" width="100" height="40" as="geometry" />
        </mxCell>
        <mxCell id="oNxq9JDDvM6uJv1V1Ub6-13" style="edgeStyle=orthogonalEdgeStyle;rounded=0;orthogonalLoop=1;jettySize=auto;html=1;entryX=0.5;entryY=0;entryDx=0;entryDy=0;" edge="1" parent="1" source="oNxq9JDDvM6uJv1V1Ub6-4" target="oNxq9JDDvM6uJv1V1Ub6-10">
          <mxGeometry relative="1" as="geometry" />
        </mxCell>
        <mxCell id="oNxq9JDDvM6uJv1V1Ub6-4" value="客户端2" style="rounded=0;whiteSpace=wrap;html=1;fillColor=#E1D5E7;" vertex="1" parent="1">
          <mxGeometry x="1360" y="90" width="100" height="40" as="geometry" />
        </mxCell>
        <mxCell id="oNxq9JDDvM6uJv1V1Ub6-9" value="Netty集群" style="rounded=0;whiteSpace=wrap;html=1;fillColor=#FCF9F8;" vertex="1" parent="1">
          <mxGeometry x="1060" y="240" width="500" height="120" as="geometry" />
        </mxCell>
        <mxCell id="oNxq9JDDvM6uJv1V1Ub6-5" value="Netty-Server01" style="rounded=0;whiteSpace=wrap;html=1;fillColor=#A9C4EB;" vertex="1" parent="1">
          <mxGeometry x="1120" y="290" width="140" height="40" as="geometry" />
        </mxCell>
        <mxCell id="oNxq9JDDvM6uJv1V1Ub6-42" style="edgeStyle=orthogonalEdgeStyle;rounded=0;orthogonalLoop=1;jettySize=auto;html=1;entryX=1;entryY=0.5;entryDx=0;entryDy=0;" edge="1" parent="1" source="oNxq9JDDvM6uJv1V1Ub6-6" target="oNxq9JDDvM6uJv1V1Ub6-4">
          <mxGeometry relative="1" as="geometry">
            <mxPoint x="1580" y="200" as="targetPoint" />
            <Array as="points">
              <mxPoint x="1580" y="310" />
              <mxPoint x="1580" y="110" />
            </Array>
          </mxGeometry>
        </mxCell>
        <mxCell id="oNxq9JDDvM6uJv1V1Ub6-6" value="Netty-Server02" style="rounded=0;whiteSpace=wrap;html=1;fillColor=#A9C4EB;" vertex="1" parent="1">
          <mxGeometry x="1360" y="290" width="140" height="40" as="geometry" />
        </mxCell>
        <mxCell id="oNxq9JDDvM6uJv1V1Ub6-14" style="edgeStyle=orthogonalEdgeStyle;rounded=0;orthogonalLoop=1;jettySize=auto;html=1;" edge="1" parent="1" source="oNxq9JDDvM6uJv1V1Ub6-10" target="oNxq9JDDvM6uJv1V1Ub6-5">
          <mxGeometry relative="1" as="geometry" />
        </mxCell>
        <mxCell id="oNxq9JDDvM6uJv1V1Ub6-15" style="edgeStyle=orthogonalEdgeStyle;rounded=0;orthogonalLoop=1;jettySize=auto;html=1;" edge="1" parent="1" source="oNxq9JDDvM6uJv1V1Ub6-10" target="oNxq9JDDvM6uJv1V1Ub6-6">
          <mxGeometry relative="1" as="geometry" />
        </mxCell>
        <mxCell id="oNxq9JDDvM6uJv1V1Ub6-10" value="loadbalance" style="rounded=0;whiteSpace=wrap;html=1;fillColor=#E6E6E6;" vertex="1" parent="1">
          <mxGeometry x="1235" y="190" width="150" height="20" as="geometry" />
        </mxCell>
        <mxCell id="oNxq9JDDvM6uJv1V1Ub6-16" value="按照直播间id进行路由" style="text;html=1;strokeColor=none;fillColor=none;align=center;verticalAlign=middle;whiteSpace=wrap;rounded=0;" vertex="1" parent="1">
          <mxGeometry x="1101" y="185" width="140" height="30" as="geometry" />
        </mxCell>
        <mxCell id="oNxq9JDDvM6uJv1V1Ub6-17" value="RocketMQ集群" style="rounded=0;whiteSpace=wrap;html=1;fillColor=#FCF9F8;" vertex="1" parent="1">
          <mxGeometry x="1060" y="440" width="500" height="120" as="geometry" />
        </mxCell>
        <mxCell id="oNxq9JDDvM6uJv1V1Ub6-19" value="RocketMQ-Client" style="rounded=0;whiteSpace=wrap;html=1;fillColor=#EBEBB5;" vertex="1" parent="1">
          <mxGeometry x="1127.5" y="320" width="125" height="20" as="geometry" />
        </mxCell>
        <mxCell id="oNxq9JDDvM6uJv1V1Ub6-20" value="RocketMQ-Client" style="rounded=0;whiteSpace=wrap;html=1;fillColor=#EBEBB5;" vertex="1" parent="1">
          <mxGeometry x="1367.5" y="320" width="125" height="20" as="geometry" />
        </mxCell>
        <mxCell id="oNxq9JDDvM6uJv1V1Ub6-21" value="Broker-01" style="rounded=0;whiteSpace=wrap;html=1;fillColor=#EBEBB5;" vertex="1" parent="1">
          <mxGeometry x="1143" y="485" width="94" height="30" as="geometry" />
        </mxCell>
        <mxCell id="oNxq9JDDvM6uJv1V1Ub6-22" value="Broker-02" style="rounded=0;whiteSpace=wrap;html=1;fillColor=#EBEBB5;" vertex="1" parent="1">
          <mxGeometry x="1383" y="485" width="94" height="30" as="geometry" />
        </mxCell>
        <mxCell id="oNxq9JDDvM6uJv1V1Ub6-23" value="Nameserver" style="rounded=0;whiteSpace=wrap;html=1;fillColor=#EBEBB5;" vertex="1" parent="1">
          <mxGeometry x="1263" y="520" width="94" height="30" as="geometry" />
        </mxCell>
        <mxCell id="oNxq9JDDvM6uJv1V1Ub6-26" value="" style="endArrow=none;dashed=1;html=1;dashPattern=1 3;strokeWidth=2;rounded=0;entryX=0.5;entryY=1;entryDx=0;entryDy=0;" edge="1" parent="1" source="oNxq9JDDvM6uJv1V1Ub6-21" target="oNxq9JDDvM6uJv1V1Ub6-19">
          <mxGeometry width="50" height="50" relative="1" as="geometry">
            <mxPoint x="940" y="410" as="sourcePoint" />
            <mxPoint x="950" y="330" as="targetPoint" />
          </mxGeometry>
        </mxCell>
        <mxCell id="oNxq9JDDvM6uJv1V1Ub6-28" value="发消息给Rmq" style="text;html=1;strokeColor=none;fillColor=none;align=center;verticalAlign=middle;whiteSpace=wrap;rounded=0;" vertex="1" parent="1">
          <mxGeometry x="1060" y="410" width="167" height="20" as="geometry" />
        </mxCell>
        <mxCell id="oNxq9JDDvM6uJv1V1Ub6-29" value="业务集群" style="rounded=0;whiteSpace=wrap;html=1;fillColor=#E5EBFC;" vertex="1" parent="1">
          <mxGeometry x="1060" y="650" width="500" height="120" as="geometry" />
        </mxCell>
        <mxCell id="oNxq9JDDvM6uJv1V1Ub6-36" style="edgeStyle=orthogonalEdgeStyle;rounded=0;orthogonalLoop=1;jettySize=auto;html=1;entryX=0.5;entryY=1;entryDx=0;entryDy=0;" edge="1" parent="1" source="oNxq9JDDvM6uJv1V1Ub6-30" target="oNxq9JDDvM6uJv1V1Ub6-22">
          <mxGeometry relative="1" as="geometry" />
        </mxCell>
        <mxCell id="oNxq9JDDvM6uJv1V1Ub6-30" value="BusinessServer01" style="rounded=0;whiteSpace=wrap;html=1;fillColor=#DBFFBF;" vertex="1" parent="1">
          <mxGeometry x="1135" y="720" width="110" height="30" as="geometry" />
        </mxCell>
        <mxCell id="oNxq9JDDvM6uJv1V1Ub6-32" style="edgeStyle=orthogonalEdgeStyle;rounded=0;orthogonalLoop=1;jettySize=auto;html=1;" edge="1" parent="1" source="oNxq9JDDvM6uJv1V1Ub6-21" target="oNxq9JDDvM6uJv1V1Ub6-30">
          <mxGeometry relative="1" as="geometry" />
        </mxCell>
        <mxCell id="oNxq9JDDvM6uJv1V1Ub6-34" value="订阅topic" style="text;html=1;strokeColor=none;fillColor=none;align=center;verticalAlign=middle;whiteSpace=wrap;rounded=0;" vertex="1" parent="1">
          <mxGeometry x="1070" y="590" width="167" height="20" as="geometry" />
        </mxCell>
        <mxCell id="oNxq9JDDvM6uJv1V1Ub6-35" value="收到客户端消息" style="text;html=1;strokeColor=none;fillColor=none;align=center;verticalAlign=middle;whiteSpace=wrap;rounded=0;" vertex="1" parent="1">
          <mxGeometry x="1050" y="610" width="167" height="20" as="geometry" />
        </mxCell>
        <mxCell id="oNxq9JDDvM6uJv1V1Ub6-37" value="发送消息给到新的topic" style="text;html=1;strokeColor=none;fillColor=none;align=center;verticalAlign=middle;whiteSpace=wrap;rounded=0;" vertex="1" parent="1">
          <mxGeometry x="1420" y="600" width="167" height="20" as="geometry" />
        </mxCell>
        <mxCell id="oNxq9JDDvM6uJv1V1Ub6-38" value="" style="endArrow=classic;startArrow=classic;html=1;rounded=0;entryX=0.446;entryY=-0.038;entryDx=0;entryDy=0;entryPerimeter=0;exitX=0.5;exitY=1;exitDx=0;exitDy=0;" edge="1" parent="1" source="oNxq9JDDvM6uJv1V1Ub6-19" target="oNxq9JDDvM6uJv1V1Ub6-22">
          <mxGeometry width="50" height="50" relative="1" as="geometry">
            <mxPoint x="1240" y="430" as="sourcePoint" />
            <mxPoint x="1290" y="380" as="targetPoint" />
          </mxGeometry>
        </mxCell>
        <mxCell id="oNxq9JDDvM6uJv1V1Ub6-39" value="" style="endArrow=classic;startArrow=classic;html=1;rounded=0;entryX=0.5;entryY=0;entryDx=0;entryDy=0;" edge="1" parent="1" source="oNxq9JDDvM6uJv1V1Ub6-20" target="oNxq9JDDvM6uJv1V1Ub6-22">
          <mxGeometry width="50" height="50" relative="1" as="geometry">
            <mxPoint x="1200" y="349.9999999999999" as="sourcePoint" />
            <mxPoint x="1434.924" y="493.8599999999999" as="targetPoint" />
          </mxGeometry>
        </mxCell>
        <mxCell id="oNxq9JDDvM6uJv1V1Ub6-40" value="广播发送消息给到各个NettyServer" style="text;html=1;strokeColor=none;fillColor=none;align=center;verticalAlign=middle;whiteSpace=wrap;rounded=0;" vertex="1" parent="1">
          <mxGeometry x="1263" y="380" width="167" height="20" as="geometry" />
        </mxCell>
        <mxCell id="oNxq9JDDvM6uJv1V1Ub6-43" value="返回响应数据" style="text;html=1;strokeColor=none;fillColor=none;align=center;verticalAlign=middle;whiteSpace=wrap;rounded=0;" vertex="1" parent="1">
          <mxGeometry x="1470" y="190" width="140" height="30" as="geometry" />
        </mxCell>
      </root>
    </mxGraphModel>
  </diagram>
</mxfile>
